<svg width="264" height="335" viewBox="0 0 264 335" fill="none" xmlns="http://www.w3.org/2000/svg">
<path d="M242.05 335H5.79504L27.7356 22.6948H264L242.05 335Z" fill="#92E3A9"/>
<g opacity="0.1">
<path d="M242.05 335H5.79504L27.7356 22.6948H264L242.05 335Z" fill="black"/>
</g>
<path d="M236.264 335H0L21.9499 22.6948H258.205L236.264 335Z" fill="#92E3A9"/>
<path d="M225.51 316.511L16.7747 319.157L32.939 37.809L241.684 35.1638L225.51 316.511Z" fill="#EBEBEB"/>
<path d="M220.391 320.054L12.1913 315.577L38.0578 34.2758L246.258 38.7437L220.391 320.054Z" fill="#DBDBDB"/>
<path d="M223.622 317.848H15.0559L34.8268 36.4817H243.393L223.622 317.848Z" fill="white"/>
<path d="M78.3228 125.223H57.5L58.9558 104.501H79.7786L78.3228 125.223Z" fill="#EBEBEB"/>
<path d="M158.27 107.538H90.8052L91.0213 104.501H158.486L158.27 107.538Z" fill="#263238"/>
<path d="M209.083 113.427H90.392L90.608 110.389H209.29L209.083 113.427Z" fill="#EBEBEB"/>
<path d="M208.66 119.325H89.9787L90.1947 116.287H208.876L208.66 119.325Z" fill="#EBEBEB"/>
<path d="M208.247 125.223H89.5654L89.7814 122.185H208.463L208.247 125.223Z" fill="#EBEBEB"/>
<path d="M59.8387 113.829C60.5619 114.465 61.2475 115.138 61.9238 115.801C62.6 116.465 63.2481 117.166 63.915 117.848C65.2205 119.232 66.4697 120.652 67.6719 122.082L65.2675 122.241C67.4455 118.316 69.8769 114.535 72.5465 110.922C73.8896 109.109 75.2891 107.342 76.7731 105.622C78.2676 103.882 79.8672 102.234 81.5632 100.687C80.785 102.819 79.8625 104.895 78.8018 106.903C77.7781 108.903 76.6604 110.847 75.4769 112.754C73.1159 116.581 70.5055 120.25 67.6625 123.737L66.2349 125.475L65.2956 123.886C64.3564 122.269 63.342 120.643 62.4779 118.97C62.0271 118.119 61.5387 117.297 61.1348 116.437C60.7309 115.577 60.2238 114.67 59.8387 113.829Z" fill="#92E3A9"/>
<path d="M75.599 163.967H54.7762L56.232 143.244H77.0548L75.599 163.967Z" fill="#EBEBEB"/>
<path d="M155.547 146.282H88.0814L88.2974 143.244H155.763L155.547 146.282Z" fill="#263238"/>
<path d="M206.359 152.18H87.6682L87.8842 149.142H206.566L206.359 152.18Z" fill="#EBEBEB"/>
<path d="M205.946 158.078H87.2548L87.4709 155.04H206.153L205.946 158.078Z" fill="#EBEBEB"/>
<path d="M205.533 163.967H86.8416L87.0576 160.938H205.739L205.533 163.967Z" fill="#EBEBEB"/>
<path d="M57.1149 152.535C57.8381 153.171 58.5237 153.835 59.2 154.508C59.8762 155.181 60.5243 155.872 61.1911 156.555C62.4967 157.938 63.7459 159.359 64.9481 160.789L62.553 160.938C64.7264 157.01 67.1581 153.229 69.8321 149.619C71.1658 147.815 72.5653 146.048 74.0493 144.329C75.5414 142.586 77.1412 140.938 78.8394 139.393C78.0569 141.522 77.1377 143.598 76.0874 145.609C75.0542 147.609 73.9366 149.554 72.7531 151.46C70.3986 155.282 67.7978 158.947 64.9669 162.434L63.5392 164.172L62.6 162.583C61.6044 160.966 60.637 159.331 59.7259 157.658C59.2751 156.816 58.7867 155.984 58.3828 155.134C57.979 154.283 57.5 153.423 57.1149 152.535Z" fill="#92E3A9"/>
<path d="M72.8751 202.72H52.0523L53.5081 181.997H74.331L72.8751 202.72Z" fill="#EBEBEB"/>
<path d="M152.823 185.035H85.3577L85.5737 181.997H153.039L152.823 185.035Z" fill="#263238"/>
<path d="M203.635 190.933H84.9444L85.1604 187.895H203.852L203.635 190.933Z" fill="#EBEBEB"/>
<path d="M203.222 196.822H84.5311L84.7471 193.793H203.438L203.222 196.822Z" fill="#EBEBEB"/>
<path d="M202.809 202.72H84.1178L84.3338 199.682H203.016L202.809 202.72Z" fill="#EBEBEB"/>
<path d="M54.3911 191.288C55.1143 191.924 55.7999 192.588 56.4762 193.261C57.1524 193.934 57.8005 194.625 58.4673 195.308C59.7729 196.682 61.022 198.112 62.2243 199.542L59.8292 199.691C62.0121 195.765 64.4499 191.983 67.1271 188.372C68.4608 186.568 69.8603 184.792 71.3442 183.082C72.8363 181.339 74.4361 179.691 76.1343 178.146C75.3536 180.273 74.4344 182.346 73.3824 184.353C72.3492 186.353 71.2315 188.307 70.0481 190.213C67.6903 194.039 65.0797 197.705 62.2337 201.187L60.806 202.926L59.8668 201.346C58.8712 199.729 57.9038 198.093 56.9927 196.42C56.5513 195.579 56.0535 194.747 55.6496 193.887C55.2458 193.027 54.7761 192.176 54.3911 191.288Z" fill="#92E3A9"/>
<path d="M70.1514 241.473H49.3286L50.7844 220.75H71.6073L70.1514 241.473Z" fill="#EBEBEB"/>
<path d="M150.099 223.788H82.6339L82.8499 220.75H150.315L150.099 223.788Z" fill="#263238"/>
<path d="M200.912 229.677H82.2206L82.4367 226.639H201.128L200.912 229.677Z" fill="#EBEBEB"/>
<path d="M200.498 235.575H81.8073L82.0233 232.537H200.714L200.498 235.575Z" fill="#EBEBEB"/>
<path d="M200.085 241.473H81.394L81.6101 238.435H200.301L200.085 241.473Z" fill="#EBEBEB"/>
<path d="M67.4276 280.217H46.6048L48.0606 259.504H68.8834L67.4276 280.217Z" fill="#EBEBEB"/>
<path d="M147.375 262.532H79.9195L80.1261 259.504H147.591L147.375 262.532Z" fill="#263238"/>
<path d="M198.188 268.43H79.5062L79.7128 265.392H198.404L198.188 268.43Z" fill="#EBEBEB"/>
<path d="M197.775 274.328H79.0836L79.2997 271.29H197.991L197.775 274.328Z" fill="#EBEBEB"/>
<path d="M197.361 280.217H78.6702L78.8863 277.179H197.577L197.361 280.217Z" fill="#EBEBEB"/>
<path d="M100.301 69.3742C101.506 69.3659 102.677 69.772 103.616 70.5239C103.656 70.5558 103.689 70.5951 103.713 70.6396C103.737 70.6842 103.752 70.733 103.757 70.7833C103.763 70.8337 103.758 70.8845 103.743 70.933C103.729 70.9815 103.705 71.0267 103.673 71.066C103.641 71.1053 103.601 71.1379 103.556 71.162C103.512 71.186 103.463 71.2011 103.412 71.2063C103.361 71.2115 103.31 71.2068 103.262 71.1923C103.213 71.1779 103.167 71.154 103.128 71.1221C102.315 70.4597 101.295 70.0995 100.245 70.1033C98.9757 70.1031 97.7529 70.5763 96.8175 71.4294C95.882 72.2824 95.3019 73.4535 95.1914 74.7114C95.1504 75.3062 95.2352 75.9029 95.4403 76.4631C95.6455 77.0232 95.9665 77.5343 96.3825 77.9633C96.7985 78.3923 97.3004 78.7297 97.8556 78.9536C98.4108 79.1776 99.0071 79.2831 99.6058 79.2634C100.689 79.2695 101.741 78.9103 102.593 78.2446C102.631 78.2131 102.675 78.1902 102.723 78.1773C102.771 78.1644 102.821 78.1619 102.87 78.1699C102.919 78.1778 102.966 78.1961 103.007 78.2235C103.048 78.2509 103.083 78.2868 103.109 78.3287C103.141 78.3669 103.165 78.4115 103.179 78.4594C103.193 78.5074 103.196 78.5577 103.189 78.6071C103.182 78.6565 103.164 78.7038 103.138 78.746C103.111 78.7883 103.076 78.8244 103.034 78.8521C102.024 79.5917 100.803 79.9912 99.5495 79.9925C98.8562 80.0138 98.1661 79.8902 97.5238 79.6295C96.8815 79.3689 96.3013 78.9771 95.8207 78.4794C95.34 77.9817 94.9696 77.3892 94.7334 76.7401C94.4972 76.0911 94.4005 75.3999 94.4494 74.7114C94.5826 73.2567 95.2561 71.9037 96.3381 70.9167C97.4202 69.9298 98.8331 69.3798 100.301 69.3742Z" fill="#263238"/>
<path d="M112.624 75.1133H107.214L106.894 79.6373C106.883 79.7356 106.835 79.8262 106.761 79.8917C106.686 79.9572 106.59 79.9931 106.49 79.9925C106.445 79.9926 106.4 79.9833 106.358 79.9652C106.316 79.947 106.278 79.9204 106.247 79.8869C106.216 79.8535 106.193 79.8141 106.178 79.7711C106.163 79.7281 106.158 79.6825 106.162 79.6373L106.847 69.8789C106.854 69.7822 106.898 69.6918 106.97 69.6259C107.041 69.5599 107.135 69.5235 107.232 69.5237C107.28 69.5208 107.327 69.5281 107.371 69.5451C107.415 69.5621 107.455 69.5883 107.488 69.622C107.521 69.6557 107.546 69.6961 107.562 69.7405C107.578 69.7848 107.584 69.832 107.58 69.8789L107.261 74.3935H112.68L112.99 69.8789C113.001 69.7837 113.046 69.6956 113.117 69.6305C113.187 69.5654 113.279 69.5275 113.375 69.5237C113.423 69.521 113.47 69.5283 113.515 69.5452C113.559 69.5621 113.6 69.5882 113.633 69.6217C113.667 69.6552 113.693 69.6955 113.71 69.7398C113.727 69.7842 113.735 69.8315 113.732 69.8789L113.046 79.6373C113.033 79.7348 112.985 79.8242 112.911 79.8894C112.836 79.9546 112.741 79.9911 112.642 79.9925C112.596 79.9925 112.551 79.9832 112.508 79.9652C112.466 79.9471 112.428 79.9206 112.396 79.8874C112.365 79.8541 112.34 79.8148 112.324 79.7718C112.309 79.7288 112.302 79.683 112.304 79.6373L112.624 75.1133Z" fill="#263238"/>
<path d="M117.498 69.8976C117.507 69.8017 117.552 69.7125 117.623 69.647C117.694 69.5815 117.787 69.5443 117.883 69.5424H123.293C123.34 69.5393 123.387 69.5466 123.431 69.5636C123.475 69.5806 123.514 69.607 123.546 69.641C123.579 69.6749 123.603 69.7155 123.618 69.7598C123.632 69.8042 123.637 69.8512 123.631 69.8976C123.627 69.9969 123.584 70.0906 123.513 70.16C123.441 70.2294 123.346 70.2692 123.246 70.2715H118.212L117.921 74.4123H122.326C122.373 74.4133 122.419 74.424 122.462 74.4438C122.504 74.4635 122.542 74.4919 122.573 74.5271C122.604 74.5623 122.627 74.6035 122.641 74.6481C122.655 74.6927 122.66 74.7397 122.655 74.7861C122.648 74.8837 122.604 74.9752 122.533 75.0426C122.462 75.1101 122.368 75.1486 122.27 75.1507H117.846L117.555 79.2821H122.598C122.646 79.2816 122.693 79.2913 122.736 79.3106C122.779 79.3299 122.818 79.3583 122.849 79.3938C122.88 79.4293 122.903 79.4711 122.917 79.5164C122.93 79.5616 122.934 79.6093 122.927 79.656C122.92 79.7527 122.876 79.8431 122.805 79.909C122.733 79.9749 122.639 80.0114 122.542 80.0112H117.104C117.016 80.004 116.934 79.9628 116.876 79.8964C116.818 79.8301 116.789 79.7437 116.794 79.656L117.498 69.8976Z" fill="#263238"/>
<path d="M131.455 69.3742C132.66 69.3689 133.83 69.7747 134.771 70.5239C134.806 70.5578 134.834 70.5985 134.853 70.6435C134.872 70.6884 134.882 70.7368 134.882 70.7856C134.882 70.8344 134.872 70.8827 134.853 70.9277C134.834 70.9726 134.806 71.0133 134.771 71.0473C134.743 71.0873 134.707 71.1212 134.665 71.1469C134.624 71.1726 134.577 71.1894 134.529 71.1964C134.48 71.2034 134.431 71.2005 134.384 71.1877C134.336 71.1749 134.292 71.1525 134.254 71.1221C133.445 70.4583 132.428 70.0978 131.38 70.1032C130.111 70.1051 128.888 70.5786 127.952 71.4311C127.015 72.2836 126.432 73.4534 126.318 74.7114C126.279 75.3063 126.367 75.9026 126.573 76.4621C126.78 77.0216 127.102 77.532 127.518 77.9605C127.935 78.3891 128.437 78.7263 128.992 78.9506C129.547 79.175 130.143 79.2815 130.741 79.2634C131.824 79.2695 132.877 78.9103 133.728 78.2446C133.766 78.2131 133.811 78.1902 133.859 78.1773C133.907 78.1644 133.957 78.1619 134.006 78.1698C134.055 78.1778 134.101 78.1961 134.143 78.2235C134.184 78.2509 134.219 78.2868 134.245 78.3287C134.277 78.3675 134.3 78.4126 134.313 78.4609C134.326 78.5093 134.328 78.5598 134.32 78.6092C134.312 78.6587 134.294 78.7059 134.266 78.7477C134.239 78.7896 134.203 78.8252 134.16 78.8521C133.154 79.5928 131.936 79.9925 130.685 79.9925C129.992 80.0138 129.302 79.8902 128.659 79.6295C128.017 79.3689 127.437 78.9771 126.956 78.4794C126.476 77.9817 126.105 77.3891 125.869 76.7401C125.633 76.0911 125.536 75.3999 125.585 74.7114C125.716 73.2527 126.392 71.8958 127.478 70.908C128.565 69.9202 129.984 69.373 131.455 69.3742Z" fill="#263238"/>
<path d="M137.992 69.8976C137.997 69.7983 138.039 69.7046 138.111 69.6352C138.182 69.5658 138.278 69.526 138.377 69.5237C138.426 69.5222 138.475 69.531 138.52 69.5496C138.565 69.5681 138.606 69.5959 138.64 69.6312C138.674 69.6665 138.699 69.7085 138.716 69.7544C138.732 69.8003 138.738 69.8491 138.734 69.8976L138.302 75.9545L145.112 69.6265C145.181 69.5635 145.271 69.5285 145.365 69.5285C145.459 69.5285 145.55 69.5635 145.619 69.6265C145.654 69.6605 145.682 69.7012 145.701 69.7461C145.72 69.7911 145.73 69.8394 145.73 69.8883C145.73 69.9371 145.72 69.9854 145.701 70.0304C145.682 70.0753 145.654 70.116 145.619 70.15L141.308 74.1599L145.065 79.3662C145.115 79.4509 145.132 79.551 145.113 79.6474C145.094 79.7439 145.04 79.8301 144.961 79.8896C144.891 79.9422 144.805 79.9687 144.717 79.9644C144.666 79.9678 144.614 79.9575 144.568 79.9345C144.522 79.9115 144.482 79.8766 144.454 79.8336L140.697 74.6833L138.218 76.992L138.039 79.6092C138.028 79.7075 137.98 79.7981 137.906 79.8637C137.831 79.9292 137.735 79.9651 137.635 79.9644C137.589 79.9645 137.544 79.9552 137.502 79.9371C137.459 79.9191 137.421 79.8926 137.389 79.8594C137.358 79.8261 137.333 79.7868 137.317 79.7438C137.302 79.7007 137.295 79.655 137.297 79.6092L137.992 69.8976Z" fill="#263238"/>
<path d="M148.418 79.9925C148.372 79.9925 148.326 79.9832 148.284 79.9652C148.242 79.9471 148.204 79.9206 148.172 79.8874C148.14 79.8541 148.116 79.8148 148.1 79.7718C148.084 79.7288 148.077 79.683 148.08 79.6373L148.765 69.8789C148.777 69.7822 148.823 69.6928 148.896 69.6275C148.968 69.5622 149.062 69.5253 149.16 69.5237C149.207 69.5223 149.253 69.5307 149.297 69.5482C149.34 69.5656 149.379 69.5919 149.412 69.6253C149.445 69.6587 149.47 69.6985 149.486 69.7421C149.503 69.7858 149.51 69.8324 149.507 69.8789L148.85 79.226H153.884C153.933 79.2243 153.981 79.2331 154.026 79.2517C154.071 79.2703 154.111 79.2983 154.144 79.3338C154.177 79.3693 154.202 79.4114 154.217 79.4573C154.232 79.5032 154.237 79.5519 154.232 79.5999C154.22 79.6982 154.173 79.7888 154.098 79.8543C154.024 79.9199 153.927 79.9557 153.828 79.9551L148.418 79.9925Z" fill="#263238"/>
<path d="M157.378 69.8976C157.389 69.8024 157.434 69.7143 157.505 69.6492C157.575 69.5841 157.667 69.5462 157.763 69.5424C157.811 69.5397 157.858 69.547 157.903 69.5639C157.948 69.5808 157.988 69.6069 158.022 69.6404C158.055 69.6739 158.082 69.7142 158.099 69.7585C158.116 69.8028 158.123 69.8502 158.12 69.8976L157.435 79.656C157.423 79.7543 157.375 79.8449 157.301 79.9104C157.226 79.9759 157.13 80.0118 157.031 80.0112C156.985 80.0112 156.939 80.0019 156.897 79.9839C156.854 79.9658 156.816 79.9393 156.785 79.9061C156.753 79.8728 156.729 79.8335 156.713 79.7905C156.697 79.7475 156.69 79.7017 156.693 79.656L157.378 69.8976Z" fill="#263238"/>
<path d="M160.806 78.0296C160.836 77.9973 160.873 77.9715 160.913 77.9539C160.953 77.9363 160.997 77.9272 161.041 77.9272C161.085 77.9272 161.129 77.9363 161.169 77.9539C161.21 77.9715 161.246 77.9973 161.276 78.0296C162.208 78.8503 163.395 79.3257 164.638 79.3756C165.479 79.3878 166.305 79.1467 167.005 78.6839C167.28 78.5183 167.514 78.2925 167.688 78.0237C167.862 77.7548 167.972 77.4499 168.01 77.1323C168.033 76.8464 167.974 76.56 167.842 76.3055C167.709 76.0511 167.507 75.8388 167.259 75.6928C166.532 75.2545 165.724 74.9653 164.883 74.8422C164.022 74.7174 163.196 74.415 162.459 73.9542C162.146 73.7583 161.892 73.4803 161.726 73.1506C161.561 72.8209 161.489 72.4522 161.52 72.0848C161.563 71.6864 161.696 71.3029 161.909 70.963C162.122 70.623 162.41 70.3355 162.751 70.1219C163.519 69.6161 164.422 69.3523 165.343 69.3648C166.5 69.4222 167.608 69.8445 168.508 70.5706C168.543 70.5971 168.573 70.6304 168.595 70.6685C168.617 70.7066 168.631 70.7487 168.636 70.7924C168.641 70.836 168.638 70.8802 168.625 70.9224C168.613 70.9646 168.592 71.0039 168.564 71.0379C168.515 71.1098 168.439 71.1598 168.353 71.1772C168.268 71.1946 168.178 71.1782 168.104 71.1314C167.309 70.4698 166.321 70.0799 165.287 70.0191C164.511 70.0104 163.75 70.2281 163.098 70.6454C162.844 70.8004 162.627 71.0101 162.465 71.2592C162.302 71.5083 162.198 71.7904 162.159 72.0848C162.147 72.3397 162.205 72.5931 162.328 72.8173C162.45 73.0415 162.632 73.2279 162.854 73.356C163.524 73.7689 164.272 74.0394 165.052 74.1505C165.977 74.281 166.866 74.5991 167.663 75.0852C167.996 75.2936 168.266 75.5879 168.445 75.9368C168.623 76.2857 168.704 76.6762 168.677 77.0668C168.626 77.4926 168.479 77.9016 168.248 78.2639C168.018 78.6261 167.708 78.9325 167.343 79.1606C166.526 79.7029 165.564 79.9893 164.582 79.9831C163.194 79.9159 161.869 79.3821 160.825 78.4689C160.773 78.4084 160.743 78.3322 160.739 78.2525C160.736 78.1728 160.76 78.0943 160.806 78.0296Z" fill="#263238"/>
<path d="M174.35 70.2528H171.185C171.137 70.2531 171.09 70.2433 171.046 70.2241C171.003 70.2049 170.963 70.1767 170.932 70.1414C170.9 70.1061 170.876 70.0644 170.861 70.0192C170.846 69.974 170.842 69.9261 170.847 69.8789C170.854 69.7822 170.898 69.6918 170.969 69.6259C171.041 69.56 171.134 69.5235 171.232 69.5237H178.295C178.341 69.5222 178.388 69.5306 178.431 69.5481C178.474 69.5657 178.512 69.5921 178.544 69.6257C178.576 69.6593 178.601 69.6992 178.616 69.7428C178.631 69.7865 178.637 69.8329 178.633 69.8789C178.628 69.9782 178.586 70.0719 178.515 70.1413C178.443 70.2107 178.348 70.2505 178.248 70.2528H175.073L174.416 79.5999C174.407 79.6958 174.362 79.785 174.291 79.8505C174.22 79.916 174.128 79.9532 174.031 79.9551C173.985 79.9552 173.939 79.9459 173.897 79.9278C173.855 79.9097 173.817 79.8833 173.785 79.85C173.753 79.8168 173.729 79.7774 173.713 79.7344C173.697 79.6914 173.69 79.6456 173.693 79.5999L174.35 70.2528Z" fill="#263238"/>
<path d="M189.519 48.0815H87.0764L89.2554 17.0024H191.698L189.519 48.0815Z" fill="#C7C7C7"/>
<path d="M172.998 0H109.393L105.401 16.993H175.552L172.998 0ZM140.81 12.226C140.327 12.2332 139.848 12.1392 139.403 11.9502C138.959 11.7612 138.56 11.4813 138.231 11.1288C137.903 10.7762 137.652 10.3589 137.496 9.90378C137.34 9.4487 137.282 8.96606 137.325 8.48717C137.407 7.47925 137.863 6.53777 138.605 5.84647C139.346 5.15517 140.32 4.76366 141.336 4.74833C141.819 4.74113 142.298 4.8351 142.743 5.02412C143.187 5.21315 143.586 5.49302 143.915 5.84557C144.243 6.19811 144.494 6.61547 144.65 7.07055C144.806 7.52563 144.864 8.00828 144.821 8.48717C144.743 9.49663 144.288 10.4405 143.546 11.1327C142.803 11.8248 141.827 12.2149 140.81 12.226Z" fill="#C7C7C7"/>
<path d="M175.552 16.993H105.401L106.303 13.1888H174.979L175.552 16.993Z" fill="#A6A6A6"/>
</svg>
