<svg width="166" height="182" viewBox="0 0 166 182" fill="none" xmlns="http://www.w3.org/2000/svg">
<path d="M89.876 117.583C101.683 95.6807 122.338 84.4475 145.607 90.6502C168.876 96.853 172.494 126.16 155.112 133.55C137.73 140.94 120.364 119.349 111.188 114.912C102.012 110.475 89.876 117.583 89.876 117.583Z" fill="#92E3A9"/>
<path d="M78.4964 175.856C78.4964 173.215 78.6773 170.574 78.7759 167.932C78.9897 162.664 79.187 157.397 79.4008 152.129C79.7955 142.498 80.9466 133.031 85.3702 124.142C89.2772 116.086 95.8106 109.295 104.101 104.673C107.184 103.002 110.503 101.715 113.967 100.845C117.11 97.9773 121.11 95.9974 125.479 95.1465C130.894 94.156 136.46 94.0305 141.923 94.7755C142.121 94.7755 142.121 95.0871 141.923 95.0574C136.738 94.4649 131.473 94.8028 126.432 96.0516C124.272 96.5897 122.178 97.3256 120.183 98.2478C118.932 98.8601 117.729 99.5493 116.582 100.31C121.278 99.4302 126.129 99.4707 130.807 100.429C132.492 100.805 134.142 101.301 135.74 101.913C137.015 101.667 138.319 101.568 139.621 101.616C141.32 101.67 143.007 101.889 144.653 102.269C148.023 103.13 151.248 104.397 154.24 106.038C154.405 106.127 154.24 106.365 154.076 106.276C151.136 104.829 147.987 103.76 144.719 103.1C143.139 102.775 141.534 102.562 139.917 102.462C139.03 102.418 138.14 102.418 137.253 102.462C143.888 105.221 149.22 110.018 152.3 115.995C152.382 116.159 152.103 116.292 152.037 116.129C150.203 112.661 147.524 109.613 144.201 107.21C140.878 104.808 136.996 103.113 132.846 102.254C132.336 102.136 131.81 102.076 131.3 101.972C131.481 102.655 131.448 103.456 131.547 104.094C131.695 105.163 131.892 106.216 132.139 107.27C132.612 109.442 133.244 111.584 134.03 113.681C134.819 115.805 135.759 117.882 136.842 119.898C137.9 122.007 139.225 123.999 140.789 125.834C140.92 125.982 140.657 126.16 140.542 125.997C139.144 124.023 137.516 122.198 136.233 120.061C135.009 118.104 133.954 116.065 133.076 113.962C132.189 111.826 131.496 109.627 131.004 107.389C130.741 106.216 130.544 105.029 130.396 103.827C130.231 103.115 130.182 102.386 130.248 101.661C127.526 101.289 124.762 101.239 122.025 101.512C123.061 106.736 124.18 112.167 127.419 116.708C127.518 116.856 127.238 117.004 127.14 116.841C125.622 114.453 124.287 111.974 123.144 109.422C122.019 106.989 121.271 104.427 120.923 101.809C116.12 102.391 111.483 103.791 107.258 105.934C99.3042 110.113 92.9533 116.382 89.0538 123.905C84.9556 132.004 82.6645 140.752 82.3115 149.651C81.5386 160.839 81.3742 172.087 80.1408 183.246C80.0586 183.973 78.7759 184.226 78.6279 183.395C78.3168 180.892 78.2728 178.367 78.4964 175.856Z" fill="#263238"/>
<path d="M105.729 102.922C106.508 102.071 107.409 101.317 108.409 100.681C109.379 99.9691 110.366 99.2717 111.402 98.6336C113.452 97.3707 115.719 96.423 118.111 95.829C118.151 95.8192 118.193 95.8238 118.228 95.8419C118.264 95.86 118.29 95.8901 118.301 95.9255C118.311 95.9609 118.306 95.9988 118.286 96.0308C118.266 96.0628 118.233 96.0863 118.194 96.0961C115.795 96.6592 113.554 97.6703 111.616 99.064C110.629 99.7169 109.692 100.414 108.771 101.141C107.945 101.913 107.036 102.609 106.058 103.219C106.036 103.238 106.01 103.254 105.982 103.264C105.954 103.275 105.924 103.28 105.893 103.28C105.863 103.28 105.832 103.275 105.804 103.264C105.776 103.254 105.75 103.238 105.729 103.219C105.707 103.199 105.69 103.176 105.678 103.151C105.667 103.125 105.661 103.098 105.661 103.071C105.661 103.043 105.667 103.016 105.678 102.99C105.69 102.965 105.707 102.942 105.729 102.922Z" fill="#263238"/>
<path d="M143.403 110.861C145.354 112.909 147.161 115.065 148.814 117.316C150.426 119.59 151.776 122.006 152.842 124.528C152.842 124.602 152.744 124.647 152.694 124.528C149.993 119.764 146.806 115.239 143.173 111.009C143.041 110.906 143.272 110.713 143.403 110.861Z" fill="#263238"/>
<path d="M117.963 108.695C118.209 110.063 118.657 111.396 119.295 112.657C119.941 113.874 120.689 115.044 121.532 116.159C121.532 116.233 121.532 116.307 121.4 116.248C119.366 114.134 118.063 111.529 117.651 108.754C117.684 108.576 117.963 108.516 117.963 108.695Z" fill="#263238"/>
<path d="M80.1408 118.132C80.1408 118.132 63.4331 99.1827 31.1852 105.89C0.515921 112.286 -13.6265 163.006 17.3552 169.075C48.3369 175.144 42.8773 128.208 54.1583 120.239C62.3971 114.378 74.303 115.639 80.1408 118.132Z" fill="#92E3A9"/>
<path opacity="0.1" d="M80.1408 118.132C80.1408 118.132 63.4331 99.1827 31.1852 105.89C0.515921 112.286 -13.6265 163.006 17.3552 169.075C48.3369 175.144 42.8773 128.208 54.1583 120.239C62.3971 114.378 74.303 115.639 80.1408 118.132Z" fill="black"/>
<path d="M6.22218 133.58C8.30229 131.924 10.4995 130.393 12.8 128.994C14.987 127.639 17.3725 126.565 19.8877 125.804C23.4295 120.907 28.2088 116.838 33.8327 113.933C33.515 113.918 33.1967 113.918 32.879 113.933C31.1699 113.851 29.4573 113.851 27.7482 113.933C24.3078 114.123 20.9355 114.883 17.7992 116.173C17.6183 116.173 17.4868 115.981 17.6677 115.921C20.8294 114.675 24.1404 113.764 27.5345 113.206C29.196 112.944 30.8799 112.815 32.5665 112.82C33.471 112.82 34.3919 112.82 35.2799 112.968H35.8061C38.7647 111.627 41.8815 110.592 45.0973 109.882L44.2093 109.674C42.6317 109.349 41.0336 109.111 39.4239 108.962C36.2135 108.628 32.9685 108.672 29.7709 109.095C29.738 109.085 29.7094 109.066 29.6891 109.041C29.6687 109.016 29.6578 108.985 29.6578 108.954C29.6578 108.923 29.6687 108.892 29.6891 108.867C29.7094 108.842 29.738 108.823 29.7709 108.813C33.0061 108.464 36.2667 108.345 39.5226 108.457C42.2524 108.538 44.9674 108.856 47.6298 109.407C49.576 109.092 51.5423 108.889 53.517 108.798C64.7651 108.383 77.0163 112.167 83.9395 120.506C90.8627 128.846 92.1618 140.005 93.4445 150.066C95.3339 164.101 95.7468 178.267 94.6779 192.372C94.6779 193.203 93.3129 193.055 93.2801 192.268C92.8689 180.308 92.392 168.348 91.1258 156.417C90.5338 150.897 89.8925 145.362 88.8729 139.886C88.1342 135.18 86.6384 130.596 84.4328 126.279C82.0284 121.871 78.2432 118.198 73.5465 115.713C68.8195 113.274 63.5507 111.815 58.1214 111.44C53.2559 111.076 48.3574 111.488 43.6502 112.657C43.8165 113.509 43.8442 114.379 43.7324 115.239C43.6302 116.318 43.393 117.383 43.0253 118.414C42.6709 119.389 42.2196 120.332 41.6768 121.234C41.0683 122.243 40.3284 123.133 39.6541 124.083C39.5555 124.246 39.2759 124.083 39.4075 123.934C40.772 122.215 41.6576 120.225 41.9893 118.132C42.1865 117.151 42.3183 116.16 42.384 115.164C42.384 114.408 42.384 113.68 42.384 112.909C37.2665 114.327 32.491 116.602 28.3074 119.616C27.518 120.195 26.7615 120.788 26.0215 121.412C27.083 122.279 28.0022 123.278 28.7513 124.379C29.8563 125.835 30.8191 127.374 31.6292 128.98C33.1201 132.222 34.1212 135.631 34.6056 139.115C34.6056 139.293 34.3261 139.337 34.3096 139.115C33.7135 135.751 32.4726 132.508 30.6425 129.529C29.7873 128.052 28.8317 126.625 27.7811 125.255C27.2384 124.557 26.6629 123.86 26.1367 123.192C25.8242 122.836 25.4624 122.465 25.1664 122.079C21.36 125.483 18.258 129.473 16.0068 133.862C17.525 135.316 18.7943 136.966 19.7726 138.759C20.9333 140.635 21.9445 142.584 22.7984 144.59C24.3616 148.469 25.647 152.434 26.6464 156.462C26.6464 156.625 26.3833 156.684 26.3504 156.462C25.3719 152.407 23.8361 148.479 21.7788 144.768C20.8141 142.938 19.7945 141.143 18.7201 139.382C17.6053 137.738 16.5951 136.039 15.6943 134.292C13.5361 138.539 12.2864 143.115 12.0107 147.781C12.0107 147.959 11.6818 147.929 11.6983 147.781C12.2895 140.471 14.7674 133.387 18.9339 127.095C16.977 127.852 14.9872 128.579 13.0961 129.499C10.6714 130.66 8.41738 132.091 6.38664 133.758C6.27153 133.921 6.13996 133.698 6.22218 133.58Z" fill="#263238"/>
<path d="M29.8696 134.663C30.8398 137.527 32.0567 140.317 32.9283 143.225C33.8215 146.01 34.3026 148.889 34.359 151.787C34.359 151.861 34.211 151.861 34.211 151.787C33.3315 145.974 31.7828 140.26 29.59 134.737C29.5804 134.72 29.5751 134.7 29.5745 134.681C29.574 134.661 29.5781 134.642 29.5868 134.624C29.5954 134.606 29.6083 134.59 29.6245 134.577C29.6408 134.564 29.6599 134.555 29.6807 134.549C29.7015 134.544 29.7233 134.543 29.7447 134.545C29.7661 134.548 29.7865 134.556 29.8045 134.566C29.8225 134.577 29.8377 134.591 29.8489 134.608C29.8602 134.625 29.8672 134.644 29.8696 134.663Z" fill="#263238"/>
<path d="M9.42888 127.525C10.6967 126.425 12.1374 125.5 13.7045 124.78C15.2952 124.124 16.9458 123.592 18.6379 123.192C18.8352 123.192 18.901 123.43 18.6379 123.474C16.9674 123.867 15.3633 124.461 13.8689 125.24C12.3469 125.954 10.8849 126.767 9.49467 127.674C9.47628 127.673 9.45865 127.667 9.44378 127.657C9.42892 127.647 9.41741 127.634 9.41056 127.618C9.40371 127.603 9.4018 127.586 9.40504 127.569C9.40828 127.553 9.41653 127.538 9.42888 127.525Z" fill="#263238"/>
<path d="M64.2224 92.8019C64.2224 92.8019 61.1308 58.7609 33.0763 47.7206C9.65912 38.5055 -3.75973 62.2482 12.8 76.7905C26.2024 88.5579 47.6791 83.2455 64.2224 92.8019Z" fill="#92E3A9"/>
<path opacity="0.1" d="M64.2224 92.8019C64.2224 92.8019 61.1308 58.7609 33.0763 47.7206C9.65912 38.5055 -3.75973 62.2482 12.8 76.7905C26.2024 88.5579 47.6791 83.2455 64.2224 92.8019Z" fill="black"/>
<path d="M17.9966 54.3242C22.2614 55.8825 26.4234 57.6612 30.4616 59.6514C33.8208 61.4018 37.0557 63.3396 40.1475 65.4535C39.687 64.5928 39.2759 63.7025 38.8155 62.8566C38.0755 61.536 37.3026 60.2598 36.431 59.0133C34.7034 56.436 32.6263 54.0632 30.2478 51.9499C30.0998 51.8312 30.2478 51.6234 30.478 51.757C32.8433 53.8708 35.0156 56.1536 36.9737 58.583C37.9445 59.8209 38.8341 61.1092 39.6377 62.4411C40.4679 63.6608 41.1044 64.9795 41.5288 66.3587L41.8413 66.5664C46.739 70.1075 51.2291 74.0847 55.2436 78.4377C55.1614 78.1113 55.0792 77.7699 54.9806 77.4583C54.4543 75.7963 53.8952 74.1641 53.3361 72.5169C52.1257 69.0258 50.4235 65.6894 48.2711 62.5895C48.156 62.4412 48.4356 62.2928 48.5342 62.456C50.7374 65.5543 52.6991 68.7871 54.405 72.1311C55.1837 73.7692 55.8321 75.4552 56.3454 77.1764C56.7525 78.2891 57.055 79.4309 57.2499 80.5894C58.4832 81.9843 59.6837 83.394 60.8184 84.8482C72.8559 100.325 78.9075 118.978 80.3546 137.75C80.7793 143.335 80.8836 148.937 80.6671 154.533C80.6218 160.173 80.0718 165.8 79.0226 171.36C78.9404 171.716 78.3319 171.613 78.3484 171.271C78.4799 166.345 79.0555 161.448 79.1541 156.521C79.2528 151.595 79.0719 146.653 78.6279 141.682C77.7383 131.858 75.6875 122.147 72.5105 112.716C69.2345 103.057 64.4089 93.8834 58.1872 85.4863C57.0197 85.2785 55.8356 84.9818 54.6845 84.7147L50.5405 83.7056C47.8493 83.0713 45.2332 82.2016 42.7293 81.1087C42.5484 81.0345 42.7293 80.7823 42.8937 80.8713C45.3662 82.0865 48.0445 82.9238 50.8201 83.3495C53.0072 83.7353 55.293 84.0024 57.4966 84.4475C55.4575 81.7765 53.2648 79.1994 50.9187 76.7164C45.5727 77.1567 40.1828 76.7956 34.9674 75.648C32.175 75.0406 29.4286 74.2724 26.7451 73.3479C23.9331 72.3685 21.269 71.1072 18.5228 70.0684C18.309 69.9942 18.5228 69.7123 18.6379 69.8162C23.662 72.2895 29.1469 73.9091 34.8194 74.5944C39.8286 75.3186 44.8919 75.6956 49.9649 75.7222C47.9587 73.6595 45.9031 71.6563 43.716 69.7865C36.3488 63.4651 27.5838 57.6333 17.8815 54.6061C17.6513 54.5171 17.8157 54.3242 17.9966 54.3242Z" fill="#263238"/>
<path d="M40.8217 54.4131C42.0827 55.8528 43.2311 57.3701 44.2586 58.9538C45.3087 60.6208 46.1367 62.3941 46.7253 64.2366C46.7253 64.2366 46.6431 64.3256 46.6266 64.2366C45.6893 62.5597 44.8999 60.8236 43.9461 59.1616C43.0406 57.5238 41.9377 55.981 40.6572 54.5615C40.4763 54.4724 40.6737 54.324 40.8217 54.4131Z" fill="#263238"/>
<path d="M14.7405 65.7502C16.5613 66.6572 18.4856 67.3835 20.4797 67.9167C22.4024 68.5155 24.3627 69.011 26.3504 69.4006V69.549C24.2851 69.35 22.2502 68.9469 20.2823 68.347C18.3387 67.6904 16.4437 66.9221 14.6089 66.0469C14.3622 65.9134 14.5596 65.6611 14.7405 65.7502Z" fill="#263238"/>
<path d="M86.028 86.6733C86.1924 88.1572 90.2707 74.3124 113.984 62.0256C135.526 50.8814 161.229 21.8709 140.114 3.54461C123.061 -11.25 78.151 20.9954 86.028 86.6733Z" fill="#92E3A9"/>
<path d="M69.6984 165.988C70.0411 151.591 71.2985 137.223 73.4643 122.955C75.3187 109.841 78.6579 96.9324 83.4297 84.4326C85.1893 79.9809 87.212 75.5291 89.3991 71.0774C89.2752 69.3812 89.3082 67.6787 89.4978 65.9875C89.6129 63.8062 89.8267 61.6248 90.0569 59.4583C90.2871 57.2918 90.5173 55.1105 90.8133 52.944C91.1093 50.7775 91.6027 48.6109 91.7014 46.4444C91.7014 46.2515 92.0631 46.296 91.9973 46.4444C91.5286 48.7226 91.2484 51.029 91.1587 53.3446C90.9778 55.4369 90.8462 57.5441 90.764 59.6512C90.6818 61.7584 90.764 63.8656 90.764 65.9727C90.764 66.7295 90.764 67.5308 90.8463 68.347C93.0827 64.0882 95.4672 59.9035 98.0654 55.8228C96.421 46.9193 98.5423 37.6745 100.549 28.9936C100.549 28.8304 100.877 28.9046 100.845 29.0827C99.8553 33.6147 99.3323 38.2196 99.2824 42.8385C99.1837 46.4741 99.381 50.1245 99.3974 53.7601C99.9565 52.8846 100.532 52.0091 101.042 51.1484C104.123 46.6274 107.411 42.2005 110.909 37.8674C110.631 35.7619 110.709 33.6305 111.139 31.546C111.533 29.207 112.11 26.8962 112.866 24.6309C113.622 22.3605 114.51 20.1792 115.497 17.9533C116.483 15.7274 117.881 13.5758 118.884 11.3202C118.888 11.3002 118.897 11.2812 118.91 11.2648C118.923 11.2483 118.94 11.2347 118.96 11.225C118.98 11.2154 119.002 11.2099 119.024 11.2091C119.047 11.2083 119.069 11.2121 119.09 11.2202C119.11 11.2283 119.128 11.2406 119.143 11.2561C119.158 11.2715 119.168 11.2897 119.174 11.3094C119.179 11.3291 119.18 11.3496 119.175 11.3695C119.171 11.3894 119.161 11.408 119.147 11.4241C117.897 13.5627 116.904 15.8163 116.187 18.1462C115.4 20.3319 114.752 22.5565 114.247 24.809C113.737 27.0497 113.326 29.2607 112.981 31.5905C112.75 33.0744 112.602 34.6622 112.323 36.1757C117.397 30.0222 122.942 24.1961 128.916 18.7398C129.064 18.6062 129.261 18.814 129.129 18.9327C120.092 28.1035 112.021 38.0144 105.022 48.5368C104.758 48.9374 104.512 49.3381 104.265 49.7387C105.564 48.9968 107.061 48.4032 108.294 47.7948C110.596 46.6374 112.904 45.4947 115.217 44.367L121.927 41.043C123.078 40.4643 124.212 39.8707 125.38 39.3365C126.782 38.7638 128.129 38.0889 129.409 37.3184C129.59 37.1997 129.771 37.4519 129.59 37.541C127.304 38.6687 125.281 40.3604 123.012 41.6217C120.743 42.883 118.638 44.2334 116.319 45.4205C112.109 47.5425 107.521 49.071 103.377 51.2672C100.505 55.8178 97.8462 60.4724 95.4014 65.2308C97.9119 63.7765 100.477 62.3915 103.097 61.0758C104.742 60.23 106.386 59.3841 108.179 58.5828C109.871 57.8749 111.471 56.9989 112.948 55.9711C112.979 55.9574 113.015 55.9532 113.05 55.9591C113.084 55.965 113.116 55.9807 113.14 56.0039C113.163 56.0271 113.178 56.0567 113.182 56.0881C113.186 56.1196 113.179 56.1514 113.162 56.1789C110.402 58.4206 107.342 60.34 104.051 61.892C101.009 63.5094 97.9174 65.0527 94.7601 66.4624C92.2112 71.4632 89.9253 76.5827 87.8862 81.7764C77.9043 107.285 74.2372 134.366 72.4776 161.255C71.9678 169.283 71.6882 177.281 71.5896 185.324C71.4909 193.367 71.9349 201.35 71.9185 209.363C71.9185 209.601 71.4909 209.66 71.458 209.363C70.3891 202.255 70.1918 195.028 69.8136 187.861C69.4353 180.694 69.5175 173.274 69.6984 165.988Z" fill="#263238"/>
<path d="M112.783 50.4956C117.12 48.7553 121.333 46.7729 125.396 44.5599C129.515 42.4622 133.511 40.1739 137.368 37.7042C137.368 37.7042 137.5 37.7042 137.45 37.8081C133.801 40.4559 129.955 42.8754 125.939 45.0496C121.732 47.1727 117.382 49.056 112.915 50.6885C112.75 50.8072 112.602 50.5698 112.783 50.4956Z" fill="#263238"/>
<path d="M105.91 21.678C106.271 20.4315 106.699 19.2147 107.176 17.9979C107.165 17.9882 107.156 17.9767 107.15 17.964C107.144 17.9512 107.141 17.9375 107.141 17.9237C107.141 17.9099 107.144 17.8962 107.15 17.8835C107.156 17.8707 107.165 17.8592 107.176 17.8495C107.472 17.1669 107.784 16.4843 108.097 15.8017L108.212 15.5494L108.393 15.1488C108.31 15.3862 108.245 15.6236 108.162 15.8611C108.132 15.9914 108.093 16.1202 108.047 16.2469C106.473 21.008 105.296 25.8691 104.528 30.7892C104.528 30.9376 104.232 30.9376 104.249 30.7892C104.482 27.7116 105.038 24.6609 105.91 21.678Z" fill="#263238"/>
<path d="M44.6369 171.152L46.3307 189.256L51.5107 244.472H107.011L112.191 189.256L113.885 171.152H44.6369Z" fill="#455A64"/>
<path d="M44.6369 171.152L46.3307 189.256H112.191L113.885 171.152H44.6369Z" fill="#263238"/>
<path d="M39.1937 181.258H119.328V163.896H39.1937V181.258Z" fill="#455A64"/>
</svg>
